<?xml version="1.0" encoding="UTF-8" standalone="no"?>
<!-- Generator: Adobe Illustrator 19.0.0, SVG Export Plug-In . SVG Version: 6.00 Build 0)  -->

<svg
   xmlns:dc="http://purl.org/dc/elements/1.1/"
   xmlns:cc="http://creativecommons.org/ns#"
   xmlns:rdf="http://www.w3.org/1999/02/22-rdf-syntax-ns#"
   xmlns:svg="http://www.w3.org/2000/svg"
   xmlns="http://www.w3.org/2000/svg"
   xmlns:sodipodi="http://sodipodi.sourceforge.net/DTD/sodipodi-0.dtd"
   xmlns:inkscape="http://www.inkscape.org/namespaces/inkscape"
   version="1.1"
   id="Layer_1"
   x="0px"
   y="0px"
   viewBox="0 0 4096 4096"
   xml:space="preserve"
   sodipodi:docname="github-logo.svg"
   width="4096"
   height="4096"
   inkscape:version="0.92.2 (5c3e80d, 2017-08-06)"
   inkscape:export-filename="G:\Users\suitedoalex\sites\svg\github-logo-0.png"
   inkscape:export-xdpi="96"
   inkscape:export-ydpi="96"><metadata
     id="metadata51"><rdf:RDF><cc:Work
         rdf:about=""><dc:format>image/svg+xml</dc:format><dc:type
           rdf:resource="http://purl.org/dc/dcmitype/StillImage" /><dc:title></dc:title></cc:Work></rdf:RDF></metadata><defs
     id="defs49" /><sodipodi:namedview
     pagecolor="#ffffff"
     bordercolor="#666666"
     borderopacity="1"
     objecttolerance="10"
     gridtolerance="10"
     guidetolerance="10"
     inkscape:pageopacity="0"
     inkscape:pageshadow="2"
     inkscape:window-width="1600"
     inkscape:window-height="837"
     id="namedview47"
     showgrid="false"
     inkscape:zoom="0.051215278"
     inkscape:cx="3122.9285"
     inkscape:cy="1013.6505"
     inkscape:window-x="-8"
     inkscape:window-y="-8"
     inkscape:window-maximized="1"
     inkscape:current-layer="Layer_1" /><style
     type="text/css"
     id="style2">
	.st0{fill:#100E0F;}
	.st1{fill:#FFFFFF;}
</style><rect
     y="596.06781"
     class="st0"
     width="5750.2373"
     height="2875.1187"
     id="rect4"
     x="4861.8311"
     style="fill:#100e0f;stroke-width:9.9830513"
     inkscape:export-xdpi="3.3389926"
     inkscape:export-ydpi="3.3389926" /><g
     id="g24"
     transform="matrix(9.9830508,0,0,9.9830508,4861.831,-2279.0508)"
     inkscape:export-xdpi="3.3389926"
     inkscape:export-ydpi="3.3389926"><path
       class="st1"
       d="M 177.3,425 H 147 c -0.8,0 -1.4,0.6 -1.4,1.4 v 14.8 c 0,0.8 0.6,1.4 1.4,1.4 h 11.8 V 461 c 0,0 -2.7,0.9 -10,0.9 -8.6,0 -20.7,-3.2 -20.7,-29.7 0,-26.6 12.6,-30.1 24.4,-30.1 10.2,0 14.6,1.8 17.4,2.7 0.9,0.3 1.7,-0.6 1.7,-1.4 l 3.4,-14.3 c 0,-0.4 -0.1,-0.8 -0.5,-1.1 -1.1,-0.8 -8.1,-4.7 -25.6,-4.7 -20.2,0 -40.9,8.6 -40.9,49.9 0,41.3 23.7,47.5 43.7,47.5 16.6,0 26.6,-7.1 26.6,-7.1 0.4,-0.2 0.5,-0.8 0.5,-1.1 v -46.2 c -0.1,-0.7 -0.7,-1.3 -1.5,-1.3 z"
       id="path6"
       inkscape:connector-curvature="0"
       style="fill:#ffffff" /><path
       class="st1"
       d="m 333.3,388.2 c 0,-0.8 -0.6,-1.4 -1.4,-1.4 h -17 c -0.8,0 -1.4,0.6 -1.4,1.4 0,0 0,32.9 0,32.9 h -26.6 v -32.9 c 0,-0.8 -0.6,-1.4 -1.4,-1.4 h -17 c -0.8,0 -1.4,0.6 -1.4,1.4 v 89.2 c 0,0.8 0.6,1.4 1.4,1.4 h 17 c 0.8,0 1.4,-0.6 1.4,-1.4 v -38.1 h 26.6 c 0,0 0,38.1 0,38.1 0,0.8 0.6,1.4 1.4,1.4 H 332 c 0.8,0 1.4,-0.6 1.4,-1.4 v -89.2 z"
       id="path8"
       inkscape:connector-curvature="0"
       style="fill:#ffffff" /><g
       id="g16"><g
         id="g14"><path
           class="st1"
           d="m 209.4,400 c 0,-6.1 -4.9,-11.1 -11,-11.1 -6.1,0 -11,5 -11,11.1 0,6.1 4.9,11.1 11,11.1 6.1,0 11,-5 11,-11.1 z"
           id="path10"
           inkscape:connector-curvature="0"
           style="fill:#ffffff" /><path
           class="st1"
           d="m 208.2,458.6 c 0,-2.3 0,-41.2 0,-41.2 0,-0.8 -0.6,-1.4 -1.4,-1.4 h -17 c -0.8,0 -1.5,0.8 -1.5,1.6 0,0 0,49.5 0,59 0,1.7 1.1,2.2 2.5,2.2 0,0 7.3,0 15.3,0 1.7,0 2.1,-0.8 2.1,-2.3 0,-3.1 0,-15.5 0,-17.9 z"
           id="path12"
           inkscape:connector-curvature="0"
           style="fill:#ffffff" /></g></g><path
       class="st1"
       d="m 398,416.2 h -16.9 c -0.8,0 -1.4,0.6 -1.4,1.4 v 43.7 c 0,0 -4.3,3.1 -10.4,3.1 -6.1,0 -7.7,-2.8 -7.7,-8.7 0,-6 0,-38.1 0,-38.1 0,-0.8 -0.6,-1.4 -1.4,-1.4 H 343 c -0.8,0 -1.4,0.6 -1.4,1.4 0,0 0,23.3 0,41 0,17.7 9.9,22.1 23.5,22.1 11.2,0 20.1,-6.2 20.1,-6.2 0,0 0.4,3.2 0.6,3.6 0.2,0.4 0.7,0.8 1.2,0.8 h 10.9 c 0.8,0 1.4,-0.6 1.4,-1.4 v -59.9 c 0.1,-0.8 -0.5,-1.4 -1.3,-1.4 z"
       id="path18"
       inkscape:connector-curvature="0"
       style="fill:#ffffff" /><path
       class="st1"
       d="m 444.3,414.2 c -9.6,0 -16.1,4.3 -16.1,4.3 v -30.2 c 0,-0.8 -0.6,-1.4 -1.4,-1.4 h -17.1 c -0.8,0 -1.4,0.6 -1.4,1.4 v 89.2 c 0,0.8 0.6,1.4 1.4,1.4 0,0 11.9,0 11.9,0 0.5,0 0.9,-0.3 1.2,-0.8 0.3,-0.5 0.7,-4.1 0.7,-4.1 0,0 7,6.6 20.2,6.6 15.5,0 24.4,-7.9 24.4,-35.4 0,-27.4 -14.2,-31 -23.8,-31 z m -6.7,50.2 c -5.9,-0.2 -9.8,-2.8 -9.8,-2.8 v -28.2 c 0,0 3.9,-2.4 8.7,-2.8 6.1,-0.5 12,1.3 12,15.8 -0.1,15.2 -2.7,18.3 -10.9,18 z"
       id="path20"
       inkscape:connector-curvature="0"
       style="fill:#ffffff" /><path
       class="st1"
       d="m 257.2,416 h -12.8 c 0,0 0,-16.9 0,-16.9 0,-0.6 -0.3,-1 -1.1,-1 h -17.4 c -0.7,0 -1,0.3 -1,0.9 v 17.5 c 0,0 -8.7,2.1 -9.3,2.3 -0.6,0.2 -1,0.7 -1,1.4 v 11 c 0,0.8 0.6,1.4 1.4,1.4 h 8.9 c 0,0 0,11.5 0,26.4 0,19.6 13.7,21.5 23,21.5 4.2,0 9.3,-1.4 10.1,-1.7 0.5,-0.2 0.8,-0.7 0.8,-1.3 v -12.1 c 0,-0.8 -0.7,-1.4 -1.4,-1.4 -0.7,0 -2.7,0.3 -4.6,0.3 -6.3,0 -8.4,-2.9 -8.4,-6.7 0,-3.8 0,-25.1 0,-25.1 h 12.8 c 0.8,0 1.4,-0.6 1.4,-1.4 v -13.7 c 0,-0.7 -0.6,-1.4 -1.4,-1.4 z"
       id="path22"
       inkscape:connector-curvature="0"
       style="fill:#ffffff" /></g><g
     id="g44"
     transform="matrix(9.2535248,0,0,9.2535248,-617.47782,715.49243)"
     inkscape:export-xdpi="5.7619691"
     inkscape:export-ydpi="5.7619691"><path
       class="st0"
       d="M 177.3,137 H 147 c -0.8,0 -1.4,0.6 -1.4,1.4 v 14.8 c 0,0.8 0.6,1.4 1.4,1.4 h 11.8 V 173 c 0,0 -2.7,0.9 -10,0.9 -8.6,0 -20.7,-3.2 -20.7,-29.7 0,-26.6 12.6,-30.1 24.4,-30.1 10.2,0 14.6,1.8 17.4,2.7 0.9,0.3 1.7,-0.6 1.7,-1.4 l 3.4,-14.3 c 0,-0.4 -0.1,-0.8 -0.5,-1.1 -1.1,-0.8 -8.1,-4.7 -25.6,-4.7 -20.2,0 -40.9,8.6 -40.9,49.9 0,41.3 23.7,47.5 43.7,47.5 16.6,0 26.6,-7.1 26.6,-7.1 0.4,-0.2 0.5,-0.8 0.5,-1.1 v -46.2 c -0.1,-0.7 -0.7,-1.3 -1.5,-1.3 z"
       id="path26"
       inkscape:connector-curvature="0"
       style="fill:#100e0f" /><path
       class="st0"
       d="m 333.3,100.2 c 0,-0.8 -0.6,-1.4 -1.4,-1.4 h -17 c -0.8,0 -1.4,0.6 -1.4,1.4 0,0 0,32.9 0,32.9 h -26.6 v -32.9 c 0,-0.8 -0.6,-1.4 -1.4,-1.4 h -17 c -0.8,0 -1.4,0.6 -1.4,1.4 v 89.2 c 0,0.8 0.6,1.4 1.4,1.4 h 17 c 0.8,0 1.4,-0.6 1.4,-1.4 v -38.1 h 26.6 c 0,0 0,38.1 0,38.1 0,0.8 0.6,1.4 1.4,1.4 H 332 c 0.8,0 1.4,-0.6 1.4,-1.4 v -89.2 z"
       id="path28"
       inkscape:connector-curvature="0"
       style="fill:#100e0f" /><g
       id="g36"><g
         id="g34"><path
           class="st0"
           d="m 209.4,112 c 0,-6.1 -4.9,-11.1 -11,-11.1 -6.1,0 -11,5 -11,11.1 0,6.1 4.9,11.1 11,11.1 6.1,0 11,-5 11,-11.1 z"
           id="path30"
           inkscape:connector-curvature="0"
           style="fill:#100e0f" /><path
           class="st0"
           d="m 208.2,170.6 c 0,-2.3 0,-41.2 0,-41.2 0,-0.8 -0.6,-1.4 -1.4,-1.4 h -17 c -0.8,0 -1.5,0.8 -1.5,1.6 0,0 0,49.5 0,59 0,1.7 1.1,2.2 2.5,2.2 0,0 7.3,0 15.3,0 1.7,0 2.1,-0.8 2.1,-2.3 0,-3.1 0,-15.5 0,-17.9 z"
           id="path32"
           inkscape:connector-curvature="0"
           style="fill:#100e0f" /></g></g><path
       class="st0"
       d="m 398,128.2 h -16.9 c -0.8,0 -1.4,0.6 -1.4,1.4 v 43.7 c 0,0 -4.3,3.1 -10.4,3.1 -6.1,0 -7.7,-2.8 -7.7,-8.7 0,-6 0,-38.1 0,-38.1 0,-0.8 -0.6,-1.4 -1.4,-1.4 H 343 c -0.8,0 -1.4,0.6 -1.4,1.4 0,0 0,23.3 0,41 0,17.7 9.9,22.1 23.5,22.1 11.2,0 20.1,-6.2 20.1,-6.2 0,0 0.4,3.2 0.6,3.6 0.2,0.4 0.7,0.8 1.2,0.8 h 10.9 c 0.8,0 1.4,-0.6 1.4,-1.4 v -59.9 c 0.1,-0.8 -0.5,-1.4 -1.3,-1.4 z"
       id="path38"
       inkscape:connector-curvature="0"
       style="fill:#100e0f" /><path
       class="st0"
       d="m 444.3,126.2 c -9.6,0 -16.1,4.3 -16.1,4.3 v -30.2 c 0,-0.8 -0.6,-1.4 -1.4,-1.4 h -17.1 c -0.8,0 -1.4,0.6 -1.4,1.4 v 89.2 c 0,0.8 0.6,1.4 1.4,1.4 0,0 11.9,0 11.9,0 0.5,0 0.9,-0.3 1.2,-0.8 0.3,-0.5 0.7,-4.1 0.7,-4.1 0,0 7,6.6 20.2,6.6 15.5,0 24.4,-7.9 24.4,-35.4 0,-27.4 -14.2,-31 -23.8,-31 z m -6.7,50.2 c -5.9,-0.2 -9.8,-2.8 -9.8,-2.8 v -28.2 c 0,0 3.9,-2.4 8.7,-2.8 6.1,-0.5 12,1.3 12,15.8 -0.1,15.2 -2.7,18.3 -10.9,18 z"
       id="path40"
       inkscape:connector-curvature="0"
       style="fill:#100e0f" /><path
       class="st0"
       d="m 257.2,128 h -12.8 c 0,0 0,-16.9 0,-16.9 0,-0.6 -0.3,-1 -1.1,-1 h -17.4 c -0.7,0 -1,0.3 -1,0.9 v 17.5 c 0,0 -8.7,2.1 -9.3,2.3 -0.6,0.2 -1,0.7 -1,1.4 v 11 c 0,0.8 0.6,1.4 1.4,1.4 h 8.9 c 0,0 0,11.5 0,26.4 0,19.6 13.7,21.5 23,21.5 4.2,0 9.3,-1.4 10.1,-1.7 0.5,-0.2 0.8,-0.7 0.8,-1.3 v -12.1 c 0,-0.8 -0.7,-1.4 -1.4,-1.4 -0.7,0 -2.7,0.3 -4.6,0.3 -6.3,0 -8.4,-2.9 -8.4,-6.7 0,-3.8 0,-25.1 0,-25.1 h 12.8 c 0.8,0 1.4,-0.6 1.4,-1.4 v -13.7 c 0,-0.7 -0.6,-1.4 -1.4,-1.4 z"
       id="path42"
       inkscape:connector-curvature="0"
       style="fill:#100e0f" /></g></svg>